<?xml version="1.0" encoding="utf-8"?>
<!-- Generator: Adobe Illustrator 22.0.1, SVG Export Plug-In . SVG Version: 6.00 Build 0)  -->
<svg version="1.1" id="图层_1" xmlns="http://www.w3.org/2000/svg" xmlns:xlink="http://www.w3.org/1999/xlink" x="0px" y="0px"
	 viewBox="0 0 512 512" style="enable-background:new 0 0 512 512;" xml:space="preserve">
<style type="text/css">
	.st0{clip-path:url(#SVGID_2_);}
	.st1{clip-path:url(#SVGID_4_);fill-rule:evenodd;clip-rule:evenodd;fill:#C53000;}
	.st2{clip-path:url(#SVGID_6_);fill-rule:evenodd;clip-rule:evenodd;fill:#C53000;}
	.st3{clip-path:url(#SVGID_8_);}
	.st4{fill-rule:evenodd;clip-rule:evenodd;fill:#C53000;}
	.st5{fill-rule:evenodd;clip-rule:evenodd;fill:#FE642E;}
	.st6{fill-rule:evenodd;clip-rule:evenodd;fill:#FFFFFF;}
</style>
<g>
	<defs>
		<circle id="SVGID_1_" cx="256" cy="256" r="256"/>
	</defs>
	<use xlink:href="#SVGID_1_"  style="overflow:visible;fill-rule:evenodd;clip-rule:evenodd;fill:#172046;"/>
	<clipPath id="SVGID_2_">
		<use xlink:href="#SVGID_1_"  style="overflow:visible;"/>
	</clipPath>
	<g class="st0">
		<g>
			<defs>
				<polygon id="SVGID_3_" points="188.8,110.9 177,167.5 271.3,169.9 				"/>
			</defs>
			<use xlink:href="#SVGID_3_"  style="overflow:visible;fill-rule:evenodd;clip-rule:evenodd;fill:#FE642E;"/>
			<clipPath id="SVGID_4_">
				<use xlink:href="#SVGID_3_"  style="overflow:visible;"/>
			</clipPath>
			<path class="st1" d="M180,132c0,0,32.9,27.1,78,22c45.1-5.1-11.8,16.2-40,16c-28.2-0.2-39.1,3.9-45-10
				C167.1,146.1,180,132,180,132z"/>
		</g>
		<g>
			<defs>
				<path id="SVGID_5_" d="M122.7,481.3c-4.2,11.6-6.6,21.8-7.5,30.7h377.5c-90.4-198.5-301.7-181.7-301.7-181.7
					S162.9,370.3,122.7,481.3z"/>
			</defs>
			<use xlink:href="#SVGID_5_"  style="overflow:visible;fill-rule:evenodd;clip-rule:evenodd;fill:#FE642E;"/>
			<clipPath id="SVGID_6_">
				<use xlink:href="#SVGID_5_"  style="overflow:visible;"/>
			</clipPath>
			<path class="st2" d="M126,514c0,0,23.2-40.5,79-88c37-31.4,74.6-55.5,130-83c28.3-14.1-16.8-34-53-27s-61.3,15.3-85,57
				c-23.7,41.7-77.1,119.8-81,134C112.1,521.2,126,514,126,514z"/>
		</g>
		<g>
			<defs>
				<path id="SVGID_7_" d="M356.3,151c-12-0.2-28.7-0.9-47.2,0c-37.7,1.8-81.8,5.6-101.5,2.4c-29.3-4.9-66.1-42.5-66.1-42.5
					S109.9,255.7,103,349c-4,54.7-0.2,120.3,3.4,163h20.4c34.4-65.7,112.6-128.5,175.2-169.9c76.7-50.8,80.5-117.5,84.9-146.3
					C391.4,167.1,391.7,151.7,356.3,151z"/>
			</defs>
			<use xlink:href="#SVGID_7_"  style="overflow:visible;fill-rule:evenodd;clip-rule:evenodd;fill:#FFA60A;"/>
			<clipPath id="SVGID_8_">
				<use xlink:href="#SVGID_7_"  style="overflow:visible;"/>
			</clipPath>
			<g class="st3">
				<path class="st4" d="M338,151c0,0,0.1,30.5,23,41c14.7,6.7,35,2,35,2s9.5-14.2-14-23C358.5,162.2,338,151,338,151z"/>
				<path class="st5" d="M337.4,136.8c0,0-11.3,67.1,61.3,47.2s-1.4-40.4-11.8-47.2C376.5,130,337.4,136.8,337.4,136.8z"/>
			</g>
		</g>
		<circle class="st6" cx="260.7" cy="227.7" r="27.1"/>
	</g>
</g>
</svg>
