<svg xmlns="http://www.w3.org/2000/svg" viewBox="0 0 510.19 501.96"><defs><style>.cls-1{fill:#231815;}</style></defs><title>资源 3</title><g id="图层_2" data-name="图层 2"><g id="layer_1" data-name="layer 1"><path class="cls-1" d="M510.19,256.92v-3.66C509.2,113.61,396,.65,256.3,0h-2.39C114.14.64.94,113.66,0,253.36v3.46c.78,117.8,81.38,216.64,190.43,245.12a16,16,0,0,0,.91-5.27V448.2C120.43,464,105,417.58,105,417.58a65.44,65.44,0,0,0-28.23-38.26c-23.12-17,1.53-15.82,1.53-15.82a54,54,0,0,1,39.12,27,53.39,53.39,0,0,0,72,22.81q1.26-.66,2.49-1.38a56.82,56.82,0,0,1,17-35.2C152.4,370.14,92.71,347.69,92.71,247.18a106.12,106.12,0,0,1,26.19-70.41,97.21,97.21,0,0,1,2.55-69.38s21.6-7.15,70.4,26.53a266.5,266.5,0,0,1,63.78-9.19,221,221,0,0,1,63.77,9.19c48.81-34,70.4-26.53,70.4-26.53a97.53,97.53,0,0,1,2.55,69.38,102,102,0,0,1,26.19,70.41c0,100.51-59.52,122.45-116.66,129.08a63.09,63.09,0,0,1,17,48.47v71.94a17.14,17.14,0,0,0,.8,5.29C428.75,473.5,509.37,374.7,510.19,256.92Z"/></g></g></svg>