<svg xmlns="http://www.w3.org/2000/svg" xmlns:xlink="http://www.w3.org/1999/xlink" viewBox="0 0 104 101.5"><defs><style>.cls-1{fill:url(#未命名的渐变_2);}</style><linearGradient id="未命名的渐变_2" x1="-73.89" y1="127.95" x2="-73.89" y2="128.95" gradientTransform="matrix(104, 0, 0, -101.5, 7737, 13088.39)" gradientUnits="userSpaceOnUse"><stop offset="0" stop-color="#492779"/><stop offset="1" stop-color="#892793"/></linearGradient></defs><title>资源 1</title><g id="图层_2" data-name="图层 2"><g id="图层_1-2" data-name="图层 1"><path id="e" class="cls-1" d="M0,52A52,52,0,0,0,35.56,101.4c2.59.46,3.57-1.1,3.57-2.47s-.06-5.33-.06-9.69C26,91.64,22.62,86.05,21.58,83.12,21,81.63,18.46,77,16.25,75.77c-1.82-1-4.42-3.38-.06-3.44,4.09-.07,7,3.77,8,5.33,4.68,7.87,12.15,5.66,15.15,4.29a11,11,0,0,1,3.31-7C31.07,73.69,19,69.21,19,49.3a20.22,20.22,0,0,1,5.33-14c-.52-1.3-2.34-6.64.52-13.79,0,0,4.35-1.37,14.3,5.33a49.16,49.16,0,0,1,26,0c9.94-6.76,14.3-5.33,14.3-5.33,2.86,7.15,1,12.49.52,13.79a20.15,20.15,0,0,1,5.33,14c0,20-12.15,24.39-23.72,25.69,1.88,1.63,3.51,4.75,3.51,9.63,0,7-.07,12.55-.07,14.31,0,1.36,1,3,3.57,2.47A52,52,0,1,0,0,52Z"/></g></g></svg>