<svg xmlns="http://www.w3.org/2000/svg" viewBox="0 0 24.4 26.5"><defs><style>.cls-1{fill:#fff;}</style></defs><title>资源 2</title><g id="图层_2" data-name="图层 2"><g id="Layer_1" data-name="Layer 1"><path class="cls-1" d="M22.9,20.7a2.29,2.29,0,0,1-.6-1.4,2,2,0,0,0-.6-.8,7.9,7.9,0,0,1-1.8,3.9s2.4.6,2.4,1.9-1.6,2.2-4.3,2.2c-3.1,0-4.2-1.3-5.7-1.3s-2.5,1.3-5.7,1.3c-2.8,0-4.3-.9-4.3-2.2s2.4-1.9,2.4-1.9a7.9,7.9,0,0,1-1.8-3.9,1.39,1.39,0,0,0-.6.8c-.2.7-.3,1.3-.6,1.4-.6.3-1.7.1-1.7-2.5s2.6-6.5,2.6-6.5C2.7,2.8,7.7,0,12.2,0s9.4,2.8,9.6,11.7c0,0,2.6,3.9,2.6,6.5S23.3,21,22.9,20.7Z"/></g></g></svg>