<svg xmlns="http://www.w3.org/2000/svg" viewBox="0 0 480 540"><defs><style>.cls-1{fill:#fff;}.cls-2{fill:#f40;}</style></defs><title>资源 1</title><g id="图层_2" data-name="图层 2"><g id="Layer_1" data-name="Layer 1"><rect class="cls-1" width="480" height="540"/><path d="M150.7,26.9H136.9V13.1h13.8ZM466.9,13.1v96.4H370.5V13.1h96.4ZM453.1,26.9H384.3V95.7h68.9V40.6l-.1-13.7ZM274.4,40.6V13.1H246.8V54.4h13.8V40.6Zm13.7,0h13.8V26.9H288.1Zm55,0h13.8V13.1H301.8V26.9h27.6V54.4h13.7Zm68.7,0H398V82h41.4V40.6H411.8ZM164.3,68.2h13.8V54.4h13.8V26.9h13.8V13.1H178.1V26.9H164.3V40.7H136.8V26.9H123V54.4h13.8V68.2h27.5ZM274.4,54.4H260.6V68.2h13.8ZM68.2,81.8H82V40.6H40.6V82H54.4l13.8-.2Zm274.9,0V68.2H329.3V54.4H315.5V82h13.8l13.8-.2Zm-165,0H164.3V95.6h13.8Zm110,0H274.3V95.6h13.8Zm27.6,0H301.9V95.6h13.8ZM26.9,109.4H13.1V13.1h96.4v96.4H26.9Zm0-13.8H95.7V26.9H26.9V95.6Zm137.4,13.8V95.6H150.5v13.8Zm41.3,0h13.8V95.6h13.8v13.8H247V81.8h13.7V68.2H219.4V54.4h13.8V13.1H219.4V40.7H205.6V82H191.8V95.7h13.8ZM329.3,95.6H315.5v13.8h13.8Zm13.8,13.8h13.8V81.8H343.1v27.6ZM150.7,123.1V109.3H136.9V95.6h13.8V81.8H136.9V68.2H123.1v55.1h13.8l13.8-.2Zm27.4,0h13.8V95.6H178.1v27.5Zm82.5,0h13.8V95.6H260.6v13.8H246.8v13.8l13.8-.1Zm27.5,0h13.8v13.8H288.1v13.8h13.8v13.8H288.1V150.7H260.6v13.8h13.8v13.7h27.5V192H357V164.4H329.4v13.8H315.6V150.6h13.8V136.9H315.6V109.3H301.9V95.6H288.1v27.5Zm41.2,0v13.8h13.8V109.3H329.3Zm-54.9,0v13.8h13.8V123.1Zm178.7,13.8V123.1H425.6v13.8H411.8v13.8h27.6V136.9Zm-371.3,0v13.8H95.6V136.9Zm275.1,13.8h27.5V136.9H412V123.1H370.6v13.8H343.1v13.8Zm96.2,0H439.3v27.5h13.8V192H425.6v13.8h13.8v27.5h13.8V205.7h13.7V136.9H453.1Zm-68.7,0v13.8h13.8v13.7H412V150.6H398.2l-13.8.1ZM81.8,164.3H54.4v13.8H95.7V164.3Zm288.8,13.8v27.6H329.3v13.7h13.8v13.8H329.3V219.4H315.5V205.6H288V247h41.4v13.7h41.3V246.9H356.9V219.4h13.8V247h13.7V233.2h13.8V205.6H384.4V164.3H370.6Zm-343.7,0H40.7V150.5H68.2V123H54.4v13.8H40.6V123H13.1v13.8H26.9v13.8H13.1v41.3H26.9Zm110,13.8V164.3h27.6V150.5h13.7V136.8H164.4V123H150.6v27.6H136.9V136.8H123.1V123H95.6v13.8h13.8v13.8H95.6v13.8h27.6v13.7H95.6v13.8h13.8v13.8h13.8V191.9Zm123.7,13.7v13.8H246.8V247h13.8V233.2h13.8V205.6h13.8V191.8H246.8v13.8Zm151.2-13.7H398v13.8h13.8ZM95.6,219.4h13.8V205.6H95.6Zm55.1,0h13.8V205.6h13.7v27.6H192v41.3h13.8V219.4H192V205.6h13.8V178.1h13.7V150.5h13.8v27.6H219.5v13.8h27.6V136.8H219.5V123H205.7v13.8H191.9v13.8h13.8v13.8H191.9v13.7H178.2v13.8H136.9v13.8H123.1v27.5h13.8V219.4Zm68.7-13.8H205.6v13.8h13.8Zm27.4,0H233v13.8h13.8ZM26.9,219.4V205.6H13.1v27.6H26.9Zm41.3,0H82V205.6H95.7V191.8H68.2v13.8H40.6v27.6H54.4V247H68.2V219.4Zm13.6,13.8V247h27.6V233.2H95.6V219.4H81.8Zm343.8-13.8H411.8v13.8h13.8ZM178.1,233.2H164.3V247h13.8Zm41.3,13.6v13.8H247V246.8H233.2V219.3H219.4v27.5Zm192.4,0V233H398v13.8Zm55.1,0V233H453.1v13.8Zm-453.8,0v13.8H26.9V246.8Zm55.1,13.8H26.9v13.8H68.2v27.5H82V288.1H95.7V274.3H81.8V246.8H68.2Zm206.2,0V246.8H260.6v13.8Zm-165,0H95.6v13.8h13.8Zm302.4,13.8h13.8V260.6h13.8V246.8H411.8v27.6Zm41.3,0h13.8V260.6H439.3v13.8Zm-110,13.7V274.3H329.3v13.8Zm27.5-13.7V260.6h13.8v27.6H370.6v13.7h27.6v41.3H412v41.3h13.7v13.8H411.9v13.8h27.6V398.3H467v41.3H439.4V425.8H411.9v41.3H398.1V439.5H384.4V425.8h13.8V412H384.4v13.8H370.6V412H343.1V370.7H315.5v27.6h13.8v13.8h13.8v27.5h13.8v13.8h13.8v13.7H329.3V453.3H301.8V439.5h13.8V425.8H301.8V370.7H274.2V343.2h27.6V329.4h13.8V301.9H301.8V288.1H260.5v27.6H246.7V357H232.9v13.8H219.2V357H205.4V343.2H233V301.9H219.2V288.1H205.4V274.3h96.4V260.6h27.6v13.8H315.6v13.8h13.8v41.3h13.7v13.7H315.5V357h27.6V343.2h41.3V329.4H370.6V315.6H356.8v13.8H343.1V288.1h13.8V274.3l13.7.1Zm27.6,82.5H356.8v41.3h41.4V356.9ZM40.6,288.1H26.9V274.3H13.1v27.6H54.4V288.1Zm68.8,13.8V288.1H95.6v13.8Zm330-13.8v13.8h13.8V288.1Zm-385,27.6H68.2V301.9H54.4Zm233.7,0h13.8V301.9H288.1Zm-261.2,0H13.1v13.8H26.9v13.7H40.7V329.4H54.4V315.6H40.6l-13.7.1Zm247.5,13.6h13.8V315.5H274.4ZM68.2,343.1v13.8H82V343.1H95.7V329.3h13.8v13.8H137V329.3h13.8V315.5h-69v13.8H54.4v13.8Zm357.4-13.8h13.8V315.5H425.6V301.8H411.8v41.3h13.8Zm27.5,13.8h13.8V301.8H453.1v27.6H439.3v13.7Zm-440,13.8H26.9V343.1H13.1Zm27.5,0H54.4V343.1H40.6Zm55,0h13.8V343.1H95.6Zm55.1,13.7V356.8H123.1v27.6h13.8V370.6Zm41.2,0v13.8h27.5V370.6H205.6V356.8H191.8l.1,13.8Zm68.7,0V356.8H246.8v13.8Zm206.3-13.7H453.1v13.8h13.8ZM95.6,370.6h13.8V467H13.1V370.6H95.6Zm0,13.8H26.9v68.9H95.7V384.4Zm82.5-13.8V343.1h27.6V315.5H191.9V301.8h13.8V288H178.1V274.2H164.3V246.7H150.5V232.9H136.8v13.8H123v13.8h13.8v27.6h27.6v82.6H150.6v13.7H136.8v13.8h41.3V370.6Zm192.5,13.8h13.8V370.6H370.6Zm82.5,0V370.6H439.3V356.8H425.6v27.6h27.5ZM246.8,398.2h13.8V384.4H246.8Zm41.3-13.8H274.3v13.8h13.8ZM54.4,398.2H40.6v41.3H82V398.1H68.2l-13.8.1Zm82.5,13.6H123.1v13.8h27.6V411.8Zm109.9,0H233V398H219.3v13.8H205.5V398H178v27.6H150.4v13.8H178v13.8h13.8V425.6h13.8v27.6h13.7V425.6h41.3V411.8Zm41.3,0H274.3v13.8h13.8Zm0,27.6h13.8V425.6H288.1Zm-165,0v27.5h13.8V453.1h13.8V439.3H136.9l-13.8.1Zm151.3,0V425.6H260.6v13.8H246.8v13.8h41.4V439.4Zm96.2,13.7h13.8V439.3H370.6Zm-82.5,13.8h13.8V453.1H288.1Zm151.3,0h13.8V453.1H439.4Z"/><path class="cls-2" d="M130.1,494.1h3.4v-5h3.9v5h3.2v3.8h-3.2v4.4l3.2-.8c0,1.3,0,2.6.1,3.8l-3.3.9v8a3.78,3.78,0,0,1-1.1,3c-.8.6-2.4.8-5.2.9-.3-1.4-.7-2.7-1-4a17.72,17.72,0,0,0,2.4.1c.7,0,.9-.5.9-1.4v-5.2l-3.1.9-.7-4.1,3.7-.9V498H130l.1-3.9Zm11.9,7.7h11.5v-6.7H141.3v-3.8h16.3V518h-4.1v-1.6H140v-3.8h13.5v-7H142Z"/><path class="cls-2" d="M160.7,501.2h28.7v4.4H160.8l-.1-4.4Z"/><path class="cls-2" d="M190.9,494.1h3.4v-5h3.9v5h3.2v3.8h-3.2v4.4l3.2-.8c0,1.3,0,2.6.1,3.8l-3.3.9v8a3.78,3.78,0,0,1-1.1,3c-.8.6-2.4.8-5.2.9-.3-1.4-.7-2.7-1-4a17.72,17.72,0,0,0,2.4.1c.7,0,.9-.5.9-1.4v-5.2l-3.1.9-.7-4.1,3.7-.9V498h-3.4l.2-3.9Zm11.9,7.7h11.5v-6.7H202.1v-3.8h16.3V518h-4.1v-1.6H200.8v-3.8h13.5v-7H202.8Z"/><path class="cls-2" d="M245.6,517.5c-.3-1.4-.7-2.9-1-4.4,1.2.1,2.2.1,3,.1a1.8,1.8,0,0,0,1.1-.3,1,1,0,0,0,.5-.8c.1-.4.1-1.9.2-4.5s.1-5.9.2-9.9h-2.9c-.1,9.4-1.9,16.3-5.3,20.6-.7-1.3-1.5-2.7-2.3-4.2,2.4-3.5,3.8-9,3.8-16.4h-3.4v-3.8H243V489h3.8l-.1,4.9h6.8l-.2,12-.2,6.9a6.42,6.42,0,0,1-.9,3.2,3.21,3.21,0,0,1-2,1.3A37.61,37.61,0,0,1,245.6,517.5Zm9.6,0V491.3h12v26h-3.9v-2.4h-4v2.6Zm8.1-22.3h-4V511h4Z"/><path class="cls-2" d="M270.1,509.7l-.7-4.2c1.8-.2,3.7-.4,5.4-.6v-3.8h-5.4v-3.8h5.4v-2.9l-4.2.3c-.1-.9-.3-2.2-.6-3.8,4.4-.3,8.7-.7,12.8-1.2l.9,3.8c-1.4.2-3,.4-4.6.6v3.4h5.7l-.4-8.4h4.2q.15,4.35.3,8.4h9.8v3.8h-9.6a36.82,36.82,0,0,0,.7,5.7,30.38,30.38,0,0,0,4.7-5.4l3.2,2.6A39.17,39.17,0,0,1,291,511c.7,1.9,1.7,2.8,2.6,2.8a1.09,1.09,0,0,0,.5-.1c.2-.1.4-.6.7-1.6a27.26,27.26,0,0,0,.7-3.7,30,30,0,0,0,3.7,2.1,19.83,19.83,0,0,1-1.9,6.1,3.66,3.66,0,0,1-3,1.6c-2.8,0-5.1-1.5-6.6-4.5a57.36,57.36,0,0,1-5.3,3.2,31.43,31.43,0,0,0-2.4-3.5,31.69,31.69,0,0,0,6.5-3.6,54.12,54.12,0,0,1-1.2-8.5h-6v3.3c1.7-.2,3.4-.5,5.1-.7a19.3,19.3,0,0,0-.1,2.3,8.08,8.08,0,0,0,.1,1.6l-5,.7v5.9a3.74,3.74,0,0,1-.8,2.5,3.68,3.68,0,0,1-2.6,1c-1.3.1-2.8.2-4.5.2a36,36,0,0,0-1.1-3.9,28.1,28.1,0,0,0,2.9.1h.6c.4,0,.7-.1.8-.4a2.13,2.13,0,0,0,.3-1.2v-3.6Zm22.1-20c2.3,1.9,4,3.4,5.2,4.5-1.1,1-2.1,2-2.8,2.6a37.83,37.83,0,0,0-5-4.7Z"/><path class="cls-2" d="M300.6,503c0-3.6,1-6.6,3.2-8.8a10.72,10.72,0,0,1,8.3-3.4,10.48,10.48,0,0,1,8,3.3,11.57,11.57,0,0,1,3,8.4,12,12,0,0,1-3.1,8.7l-.4.4,5.8,5.6h-7.2l-3.1-3.1a11.94,11.94,0,0,1-3.3.4,10.7,10.7,0,0,1-8.1-3.3A11.16,11.16,0,0,1,300.6,503Zm5.1-.3a8.88,8.88,0,0,0,1.6,5.4,5.18,5.18,0,0,0,4.4,2.2,5.41,5.41,0,0,0,4.5-2.1,8.46,8.46,0,0,0,1.6-5.4,9.1,9.1,0,0,0-1.6-5.6,5.1,5.1,0,0,0-4.4-2.1,5.37,5.37,0,0,0-4.5,2.2A8.68,8.68,0,0,0,305.7,502.7Z"/><path class="cls-2" d="M325.4,503c0-3.6,1-6.6,3.2-8.8a10.72,10.72,0,0,1,8.3-3.4,10.48,10.48,0,0,1,8,3.3,11.57,11.57,0,0,1,3,8.4,12,12,0,0,1-3.1,8.7l-.4.4,5.8,5.6H343l-3.1-3.1a11.94,11.94,0,0,1-3.3.4,10.7,10.7,0,0,1-8.1-3.3A11.16,11.16,0,0,1,325.4,503Zm5.2-.3a8.88,8.88,0,0,0,1.6,5.4,5.18,5.18,0,0,0,4.4,2.2,5.41,5.41,0,0,0,4.5-2.1,8.46,8.46,0,0,0,1.6-5.4,9.1,9.1,0,0,0-1.6-5.6,5.1,5.1,0,0,0-4.4-2.1,5.37,5.37,0,0,0-4.5,2.2A8.09,8.09,0,0,0,330.6,502.7Z"/></g></g></svg>