<?xml version="1.0" encoding="utf-8"?>
<!-- Generator: Adobe Illustrator 22.1.0, SVG Export Plug-In . SVG Version: 6.00 Build 0)  -->
<svg version="1.1" id="Layer_1" xmlns="http://www.w3.org/2000/svg" xmlns:xlink="http://www.w3.org/1999/xlink" x="0px" y="0px"
	 viewBox="0 0 480 540" style="enable-background:new 0 0 480 540;" xml:space="preserve">
<style type="text/css">
	.st0{fill:#FFFFFF;}
	.st1{fill:#FF4400;}
</style>
<g>
	<rect class="st0" width="480" height="540"/>
	<path d="M454.4,13.1L454.4,13.1h-12.3l0,0h-12.3l0,0h-12.3l0,0h-12.3l0,0h-12.4l0,0h-12.3v12.3l0,0v12.3l0,0V50l0,0v12.3l0,0v12.3
		l0,0v12.4l0,0v12.3h12.3l0,0h12.3l0,0h12.3l0,0h12.3l0,0H442l0,0h12.3l0,0h12.3V86.7l0,0V74.4l0,0V62.1l0,0V49.9l0,0V37.6l0,0V25.4
		l0,0V13.1H454.4z M454.4,37.6v12.3l0,0v12.3l0,0v12.3l0,0v12.4h-12.3l0,0h-12.3l0,0h-12.3l0,0h-12.3l0,0h-12.4V74.4l0,0V62.1l0,0
		V49.9l0,0V37.6l0,0V25.4h12.3l0,0h12.3l0,0h12.3l0,0H442l0,0h12.3L454.4,37.6L454.4,37.6z M429.9,37.6h12.3v12.3l0,0v12.3l0,0v12.3
		h-12.3l0,0h-12.3l0,0h-12.3V62.1l0,0V49.9l0,0V37.6h12.3l0,0H429.9L429.9,37.6z M49.7,74.4H37.4V62.1l0,0V49.9l0,0V37.6h12.3l0,0
		H62l0,0h12.3v12.3l0,0v12.3l0,0v12.3H61.9l0,0L49.7,74.4L49.7,74.4z M25.2,98.9h12.3l0,0h12.3l0,0h12.3l0,0h12.3l0,0h12.4l0,0H99
		V86.7l0,0V74.4l0,0V62.1l0,0V49.9l0,0V37.6l0,0V25.4l0,0V13.1H86.5l0,0H74.3l0,0H61.9l0,0H49.7l0,0H37.4l0,0H25.2l0,0H12.9v12.3
		l0,0v12.3l0,0V50l0,0v12.3l0,0v12.3l0,0v12.4l0,0v12.3h12.3C25.2,99.2,25.2,98.9,25.2,98.9z M25.2,74.4V62.1l0,0V49.9l0,0V37.6l0,0
		V25.4h12.3l0,0h12.3l0,0h12.3l0,0h12.3l0,0h12.4v12.3l0,0V50l0,0v12.3l0,0v12.3l0,0v12.4H74.3l0,0H61.9l0,0H49.7l0,0H37.4l0,0H25.2
		L25.2,74.4L25.2,74.4z M331.8,86.7h12.3V99h-12.3V86.7z M454.4,123.5h12.3v12.3h-12.3V123.5h-12.3v-12.3h12.3V123.5z M454.4,209.3
		h-12.3v-12.3l0,0v-12.3l0,0v-12.3h12.3v-12.2h-12.3v-12.2l0,0v-12.3h-12.3l0,0h-12.3v-12.3h-12.3v-12.3h-12.4l0,0h-12.3v12.3h12.3
		l0,0h12.3v12.3l0,0v12.3h-12.3v12.2h-12.3v-12.2l0,0v-12.3h-12.3v-12.3l0,0v-12.3h-12.3l0,0h-12.3v12.3h12.3v12.3h-12.3l0,0h-12.3
		l0,0h-12.3v-12.3h12.3v-12.3h-12.3v12.3h-12.3v12.3h-12.5v-12.3h-12.3v-12.3h12.3l0,0h12.3V99h12.8V86.7l0,0V74.4h12.2V62.1H344
		v12.3h12.3v12.4l0,0V99h12.3V86.7l0,0V74.4h-12.3V62.1h12.3V49.9l0,0V37.6l0,0V25.4l0,0V13.1h-12.3l0,0H344l0,0h-12.3l0,0h-12.2
		l0,0h-12.3l0,0h-12.3l0,0h-12.3v12.3h-12.3V13.1h-12.3v12.3h-12.3V13.1h-12.3l0,0h-12.3l0,0H209l0,0h-12.3v12.3H209l0,0h12.3v12.3
		l0,0V50h12.3V37.6h12.3v12.3l0,0v12.3h-12.3v12.3l0,0v12.4l0,0v12.3l0,0v12.3l0,0v12.3h-12.3v-12.3l0,0V99.1l0,0V86.7H209V74.4l0,0
		V62.1l0,0V49.9l0,0V37.6h-12.3l0,0h-12.4v12.3H172l0,0h-11.9V37.6h12.3V25.4h12.3V13.1h-12.3v12.3h-12.3l0,0h-12.2V13.1h-12.3v12.3
		l0,0v12.3h-12.3V25.4h-12.3v12.3h12.3V50l0,0v12.3l0,0v12.3h-12.3v12.4l0,0v12.3l0,0v12.3H98.8l0,0H86.5l0,0H74.3l0,0H61.9v12.3
		h12.3V136h12.4v12.3h12.3V136h12.3v12.3h12.3v12.3l0,0v12.3l0,0v12.5h-12.3v-12.3l0,0v-12.8H98.8l0,0H86.5v12.3H74.3v-12.3H61.9
		v-12.2H49.7v-12.3l0,0v-12.3H37.4l0,0H25.2l0,0H12.9v12.3l0,0v12.3h12.3v12.2H12.9v12.3h12.3v12.3h12.3v12.3H25.2v12.3l0,0v12.3
		H12.9V234l0,0v12.3l0,0v12.3l0,0v12.3h12.3v12.3H12.9v12.4l0,0v12.3l0,0v11.9l0,0v12.2h12.3v-12.2h12.3l0,0h12.3v12.2h12.3v12.3
		l0,0v12.3l0,0v12.3h12.3l0,0h12.4l0,0H99v-12.3H86.5v-12.3h12.3v-12.3h12.3v12.3l0,0v12.3h12.3v12.3h-12.3V381l0,0v12.5l0,0v12.3
		l0,0V418h12.3v12.3h12.3V418h12.3v12.3l0,0v12.3h-12.3v12.3h-12.3v12.3h12.3l0,0h12.3l0,0h12.3l0,0h12.3l0,0H185l0,0h12.3l0,0h12.3
		v-12.3h12.3v12.3h12.3v-12.3h-12.3v-12.3h12.3l0,0h12.3v12.3h12.4v12.3H271l0,0h12.3v-12.3l0,0v-12.3h12.4l0,0H308l0,0h11.6l0,0
		h12.2v12.3l0,0v12.3h12.3v-12.3h12.2v-12.3l0,0v-12.3h12.3V418h12.3v12.3l0,0v12.3h12.5l0,0h12.3v-12.3h-12.3V418h12.3l0,0h12.3
		l0,0h12.3l0,0h12.4l0,0h12.3v-12.3h12.3v-12.3h-12.3l0,0h-12.3v-12.3h12.3v-12.3l0,0v-12.3h12.3v-12.3h-12.3v12.3h-12.3v-12.3l0,0
		v-12.3h-12.3v-12.3h12.3l0,0h12.3v12.3h12.3v-12.3h-12.3v-12.3h12.3V295h-12.3l0,0h-12.3l0,0h-12.3l0,0h-12.3v12.3l0,0v12.4h-12.3
		l0,0h-12.3v-12.3h12.3v-12.3h-12.3v-12.3l0,0v-12.3l0,0v-12.3h-12.3l0,0h-12.3v12.3h12.3v12.3l0,0v12.3h-12.3v-12.3h-12.3v-12.3
		l0,0v-12.3h-12.3v12.3h-12.4v-12.3h-12.3l0,0h-12.3V246h12.3v-12.3h-12.3v-12.3h12.3v-12.3l0,0v-12.3h12.3v12.3h12.3l0,0h12.3l0,0
		h12.3v12.3h-12.3l0,0h-12.3l0,0h-12.3v12.3h12.3V246h12.3l0,0h12.3l0,0H381l0,0h12.3v-12.3H381v-12.3h12.3l0,0h12.3v12.3h12.3l0,0
		h12.3V246l0,0v12.3l0,0v12.3h-12.3l0,0h-12.3v12.3h12.3l0,0h12.3l0,0h12.4l0,0h12.3v-12.3l0,0v-12.3l0,0V246h-12.3v-12.3h-12.3
		v-12.3h12.3l0,0h12.3l0,0h12.3v-12.3l0,0v-12.3h-12.3L454.4,209.3L454.4,209.3z M294.9,135.8V148h12.3v12.3h-12.3v12.2l0,0v12.4
		h12.3l0,0h12.3v12.3h-12.3l0,0h-12.3l0,0h-12.3v-12.3l0,0v-12.3l0,0v-12.3l0,0v-12.2h-12.3v-12.3h12.3l0,0L294.9,135.8L294.9,135.8
		z M307.3,221.6h-12.4v-12.3h12.3L307.3,221.6L307.3,221.6z M221.4,233.8v12.3h-12.3l0,0h-12.3v12.3h-12.3v12.3h-12.3l0,0h-12.2
		v-12.3l0,0v-12.3h12.3v-12.3l0,0v-12.3h12.3v-12.3H197l0,0h12.3l0,0h12.3v12.3h12.3v12.3H221.4z M246,295.1h-12.3v12.3h-12.3v-12.3
		l0,0v-12.3h12.3l0,0H246V295.1z M282.8,405.6v12.3h-12.3v12.3l0,0v12.3h-12.3v-12.3h-12.3v-12.3l0,0v-12.3h12.3l0,0h12.3v-12.3
		h12.3V405.6L282.8,405.6z M270.5,381.1v12.3h-12.3v-12.3h-12.3l0,0h-12.3l0,0h-12.3v12.3h12.3l0,0h12.3v12.3h-12.3l0,0h-12.3l0,0
		h-12.3v-12.3h-12.3l0,0h-12.4v-12.3h12.3l0,0H209v-12.3h-12.3l0,0h-12.3v-12.3h12.3l0,0H209l0,0h12.3l0,0h12.3l0,0h12.3l0,0h12.3
		v12.3h12.3L270.5,381.1L270.5,381.1z M160,381.1L160,381.1v-12.3h-12.3v-12.3H160l0,0h12.3v12.3l0,0v12.3l0,0v12.3H160V381.1z
		 M74.3,332h12.3v12.3H74.3V332z M86.5,319.8h12.3v12.3H86.5V319.8z M86.5,307.5v-12.4h12.3v-12.3h12.3v12.3h12.3v-12.3l0,0v-12.3
		h-12.3v-12.3H98.8l0,0H86.5l0,0H74.3V246h12.3l0,0h12.3v-12.3H86.5l0,0H74.3v-12.3h12.3l0,0h12.3l0,0h12.3l0,0h12.3v12.3h12.3
		v-12.3h12.3v-12.3h12.3l0,0h12.3v12.3h-12.3v12.3l0,0V246h-12.3l0,0h-12.3l0,0h-12.3v12.3h12.3l0,0h12.3v12.3l0,0v12.3h-12.3v12.3
		h12.3v12.3h-12.3l0,0h-12.3v12.3h12.3v12.2h-12.3l0,0h-12.3v-12.2H98.8v-12.3L86.5,307.5L86.5,307.5z M37.4,246.2h12.3v12.3H37.4
		V246.2z M61.9,258.4h12.3v12.3H61.9V258.4z M98.7,282.9H86.5v-12.3h12.3L98.7,282.9L98.7,282.9z M37.4,148h12.3v12.3H37.4V148z
		 M37.4,172.5H25.2v-12.3h12.3L37.4,172.5L37.4,172.5z M37.4,172.5h12.3v-12.3H62v12.3h12.3v12.4H61.9l0,0H49.7l0,0H37.4V172.5z
		 M123.3,209.3h12.3v12.3h-12.3V209.3z M135.6,148h12.3v12.3h-12.3V148z M160,160.2v-12.3h12.3l0,0h12.4l0,0H197v12.3h-12.3v12.3
		h-12.3l0,0h-12.3v12.4l0,0v12.3h-12.2v-12.3l0,0v-12.3l0,0v-12.3L160,160.2L160,160.2z M184.7,123.5v-12.3H197l0,0h12.3v12.3l0,0
		v12.3l0,0V148H197v-12.3h-12.3V123.5L184.7,123.5z M196.9,86.7h12.3V99h-12.3V86.7z M233.6,123.5h12.3v12.3h12.3V148h-12.3l0,0
		h-12.3v-12.3l0,0L233.6,123.5L233.6,123.5z M258.2,111.2v12.3h-12.3v-12.3C246,111.2,258.2,111.2,258.2,111.2z M258.2,98.9h12.3
		v12.3h-12.3V98.9z M270.5,86.7h12.3V99h-12.3V86.7z M270.5,135.8h-12.3v-12.3h12.3V135.8z M270.5,160.2v12.3h-12.3v12.4h-12.3
		v-12.3h-12.3v12.3h12.3v12.3h-12.3l0,0h-12.3l0,0h-12.3v-12.3h12.3v-12.3l0,0v-12.3h12.3l0,0h12.3l0,0h12.3v-12.2h12.3L270.5,160.2
		L270.5,160.2z M258.2,233.8h-12.3v-12.3h12.3V233.8z M184.7,209.3h-12.3v-12.3h12.3V209.3z M196.9,160.2h12.3v12.3h-12.3V160.2z
		 M209.2,148h12.3v12.3h-12.3V148z M184.7,282.9v-12.3H197v12.3l0,0v12.3h12.3v12.3H197v12.2l0,0v12.2l0,0v12.3h-12.3v12.3h-12.3
		v-12.3h-12.3v-12.3l0,0v-12.2h-12.2v-12.3h12.2v-12.3h12.3v-12.3L184.7,282.9L184.7,282.9z M221.4,282.9h-12.3v-12.3h12.3V282.9z
		 M246,332v12.3h-12.3l0,0h-12.3V332l0,0v-12.3h12.3V332H246z M135.6,344.3L135.6,344.3h12.3v12.3h-12.3l0,0h-12.3v-12.3H135.6z
		 M270.5,221.6L270.5,221.6v-12.3h-12.3l0,0h-12.3v-12.3h12.3v-12.3h12.3v12.3h12.3v12.3l0,0v12.3l0,0v12.3h-12.3V221.6z
		 M294.9,233.8h12.3v12.3h-12.3V233.8z M344.1,25.4L344.1,25.4h12.3v12.3l0,0V50h-12.3l0,0h-12.3l0,0h-12.3V37.6h12.3V25.4
		C331.8,25.4,344.1,25.4,344.1,25.4z M294.9,25.4h12.3l0,0h12.3v12.3h-12.3l0,0h-12.3V50h12.3l0,0h12.3v12.3l0,0v12.3h-12.3v12.4
		l0,0v12.3h-12.3V86.7h-12.3V74.4h12.3V62.1h-12.3V49.9h-12.3V37.6h12.3V25.4L294.9,25.4L294.9,25.4z M258.2,25.4h12.3v12.3h-12.3
		V25.4z M246,86.7V74.4h12.3V62.1h12.3l0,0h12.3v12.3h-12.3v12.4h-12.3V99H246V86.7L246,86.7z M172.3,74.4H160V62.1h12.3V74.4z
		 M160,98.9h-12.3V86.7H160V98.9z M147.8,86.7h-12.3V74.4h12.3V86.7z M135.6,49.9V37.6h12.3v12.3h12.3v12.3h-12.3l0,0h-12.3V49.9
		L135.6,49.9z M123.3,98.9V86.7h12.3V99l0,0v12.3h12.3v12.3h12.3v-12.3l0,0V99h12.3V86.7l0,0V74.4h12.5V62.1l0,0V49.9h12.3v12.3l0,0
		v12.3l0,0v12.4h-12.3v12.3l0,0v12.3h-12.3v12.3l0,0v12.3h-12.5v12.3h-12.2v-12.3h-12.3l0,0h-12.3v-12.3h-12.3v-12.3h12.3V99.1h-0.1
		V98.9z M98.7,123.5v12.3H86.5v-12.3H98.7z M123.3,197.1v12.3H111l0,0H98.7l0,0H86.5v-12.3h12.3l0,0h12.3l0,0H123.3z M98.7,184.9
		H86.5v-12.3h12.3L98.7,184.9L98.7,184.9z M37.4,135.8V148H25.2v-12.3H37.4z M37.4,209.3v-12.3h12.3l0,0H62l0,0h12.3v12.3l0,0v12.3
		H61.9v-12.3H49.7v12.3H62v12.3h12.3v12.3H61.9l0,0H49.7v-12.3H37.4l0,0H25.2v-12.3h12.3L37.4,209.3L37.4,209.3L37.4,209.3z
		 M25.2,307.5v-12.4l0,0v-12.3h12.3v-12.3h12.3v12.3h12.3l0,0h12.3l0,0h12.4v12.3H74.3v12.3h12.3v12.3H74.3l0,0H61.9v-12.3H49.7
		v-12.3H37.4v12.3L25.2,307.5L25.2,307.5z M135.6,405.6v12.3h-12.3v-12.3H135.6z M135.6,405.6v-12.3l0,0V381h-12.3v-12.3h12.3l0,0
		h12.3V381l0,0v12.3l0,0v12.3H135.6z M160,430.1v-12.3l0,0v-12.3h12.3l0,0h12.4l0,0H197l0,0h12.3v12.3H197v12.3h-12.3v-12.3h-12.3
		v12.3l0,0v12.3h-12.3L160,430.1L160,430.1z M221.4,430.1v12.3h-12.3l0,0h-12.3v-12.3h12.3v-12.3h12.3l0,0h12.3v12.3H221.4z
		 M307.3,430.1L307.3,430.1h-12.4l0,0h-12.3v-12.3h12.3l0,0h12.3v-12.3l0,0v-12.4h12.3v-12.3h-12.3v-12.3h12.3v-12.3l0,0v-12.3l0,0
		v-12.3h12.2v12.3l0,0v12.3l0,0v12.3l0,0v12.3l0,0v12.3l0,0v12.3l0,0v12.3h-12.2V430L307.3,430.1L307.3,430.1z M331.8,307.5h12.3
		v12.3h-12.3V307.5z M344.1,295.1h12.3v12.3h-12.3V295.1z M356.3,381.1v12.3l0,0v12.3l0,0v12.3l0,0v12.3h-12.3v-12.3l0,0v-12.3l0,0
		v-12.3l0,0v-12.3l0,0v-12.3l0,0v-12.3l0,0v-12.3h12.3v12.3l0,0v12.3l0,0V381.1L356.3,381.1z M331.8,442.4v-12.3h12.3v12.3H331.8z
		 M344.1,319.8h12.3v12.3h-12.3V319.8z M356.3,307.5h12.3v12.3h-12.3V307.5z M368.6,344.3h-12.3V332h12.3V344.3z M368.6,344.3h12.3
		v12.3h-12.3V344.3z M393.1,344.3h12.3v12.3h-12.3V344.3z M393.1,332v12.3h-12.3V332h-12.3v-12.3h12.3l0,0h12.3V332L393.1,332z
		 M393.1,405.6L393.1,405.6h-12.3l0,0h-12.3v-12.3l0,0V381l0,0v-12.3h12.3l0,0h12.3l0,0h12.3V381l0,0v12.3l0,0v12.3H393.1z
		 M417.8,405.6v-12.3H430v12.3H417.8z M442.2,368.8v12.3h-12.3v-12.3l0,0v-12.3h12.3V368.8L442.2,368.8z M417.8,332L417.8,332H430
		v12.3l0,0v12.3h-12.3v-12.3h-12.3V332H417.8z M344.1,282.9v12.3h-12.3v12.3h-12.3l0,0h-12.2v12.2l0,0v12.2h-12.4l0,0h-12.3v12.3
		h12.3v12.3h12.3v12.3h-12.3V381l0,0v12.5h-12.3v-12.3l0,0v-12.3h-12.3v-12.3l0,0v-12.3h-12.3v-12.3h12.3v-12.3h12.3v-12.3h-12.3
		v12.3h-12.3v12.3h-12.3v-12.3l0,0v-12.3l0,0V295h12.3l0,0h12.3v-12.3l0,0v-12.3h-12.3v12.3h-12.3v-12.3h-12.3l0,0h-12.3v-12.3l0,0
		v-12.3h12.3v12.3h12.3l0,0h12.3v-12.3h12.3l0,0h12.3l0,0h12.3v12.3h-12.3v12.3h12.3l0,0h12.3v12.3h12.3l0,0h12.2l0,0h12.4V282.9z
		 M319.6,184.9v-12.3l0,0v-12.3l0,0v-12.2h12.3v12.2h12.3v-12.2h12.3l0,0h12.3v12.2h-12.3v12.3h-12.3v12.3h-12.3l0,0L319.6,184.9
		L319.6,184.9z M356.3,184.9h12.3v12.3h-12.3V184.9z M405.4,221.6v-12.3h-12.3l0,0h-12.3l0,0h-12.3v-12.3h12.3v-12.3l0,0v-12.3h12.3
		v-12.2h12.3v-12.2h12.3l0,0h12.3v12.2l0,0v12.3l0,0v12.3h-12.3v-12.3h-12.3v12.3l0,0v12.3h12.3l0,0h12.3v12.3h-12.3v12.3
		L405.4,221.6L405.4,221.6z M417.8,258.4h-12.3v-12.3h12.3V258.4z M282.8,282.9H295v12.3h-12.3V282.9z M172.3,307.5h12.4v12.3h-12.3
		L172.3,307.5L172.3,307.5z M25.2,368.8H12.9v-12.3h12.3l0,0h12.3l0,0h12.3v12.3H37.4l0,0H25.2L25.2,368.8z M86.5,381.1H74.3l0,0
		H61.9l0,0H49.7l0,0H37.4l0,0H25.2l0,0H12.9v12.3l0,0v12.3l0,0v12.3l0,0v12.3l0,0v12.3l0,0v12.3l0,0v12.3h12.3l0,0h12.3l0,0h12.3
		l0,0h12.3l0,0h12.3l0,0h12.4l0,0H99v-12.3l0,0v-12.3l0,0v-12.3l0,0v-12.3l0,0v-12.3l0,0v-12.3l0,0v-12.3L86.5,381.1L86.5,381.1z
		 M86.5,405.6v12.3l0,0v12.3l0,0v12.3l0,0v12.3H74.3l0,0H61.9l0,0H49.7l0,0H37.4l0,0H25.2v-12.3l0,0v-12.3l0,0v-12.3l0,0v-12.3l0,0
		v-12.3h12.3l0,0h12.3l0,0h12.3l0,0h12.3l0,0h12.4v12.3L86.5,405.6L86.5,405.6z M380.9,381.1h12.3v12.3h-12.3V381.1z M61.9,405.6
		h12.3v12.3l0,0v12.3l0,0v12.3H61.9l0,0H49.7l0,0H37.4v-12.3l0,0v-12.3l0,0v-12.3h12.3l0,0H61.9L61.9,405.6z M454.4,454.6h12.3v12.3
		h-12.3l0,0h-12.3l0,0h-12.3v-12.3l0,0v-12.3h12.3V430h12.3v12.3l0,0V454.6z M405.4,454.6h12.3v12.3h-12.3l0,0h-12.3l0,0h-12.3
		v-12.3h12.3l0,0H405.4L405.4,454.6z"/>
	<g>
		<path class="st1" d="M125.4,494.2h3.4v-5h3.9v5h3.2v3.8h-3.2v4.4l3.2-0.8c0,1.3,0,2.6,0.1,3.8l-3.3,0.9v8c0,1.4-0.4,2.4-1.1,3
			c-0.8,0.6-2.4,0.8-5.2,0.9c-0.3-1.4-0.7-2.7-1-4c0.7,0.1,1.5,0.1,2.4,0.1c0.7,0,0.9-0.5,0.9-1.4v-5.2l-3.1,0.9l-0.7-4.1l3.7-0.9
			v-5.4h-3.4L125.4,494.2L125.4,494.2z M137.3,501.8h11.5v-6.7h-12.2v-3.8H153v26.7h-4.1v-1.6h-13.5v-3.8h13.5v-7h-11.5V501.8z"/>
		<path class="st1" d="M156,501.3h28.6v4.4H156V501.3z"/>
		<path class="st1" d="M186.2,494.2h3.4v-5h3.9v5h3.2v3.8h-3.2v4.4l3.2-0.8c0,1.3,0,2.6,0.1,3.8l-3.3,0.9v8c0,1.4-0.4,2.4-1.1,3
			s-2.4,0.8-5.2,0.9c-0.3-1.4-0.7-2.7-1-4c0.7,0.1,1.5,0.1,2.4,0.1c0.7,0,0.9-0.5,0.9-1.4v-5.2l-3.1,0.9l-0.7-4.1l3.7-0.9v-5.4h-3.4
			L186.2,494.2L186.2,494.2z M198.1,501.8h11.5v-6.7h-12.2v-3.8h16.3v26.7h-4.1v-1.6h-13.5v-3.8h13.5v-7h-11.5V501.8z"/>
		<path class="st1" d="M240.9,517.6c-0.3-1.4-0.7-2.9-1-4.4c1.2,0.1,2.2,0.1,3,0.1c0.5,0,0.8-0.1,1.1-0.3s0.5-0.5,0.5-0.8
			c0.1-0.4,0.1-1.9,0.2-4.5s0.1-5.9,0.2-9.9H242c-0.1,9.4-1.9,16.3-5.3,20.6c-0.7-1.3-1.5-2.7-2.3-4.2c2.4-3.5,3.8-9,3.8-16.4h-3.4
			v-3.8h3.5c0-1.7,0-3.4,0-4.9h3.8l-0.1,4.9h6.8l-0.2,12l-0.2,6.9c-0.1,1.4-0.4,2.5-0.9,3.2c-0.6,0.7-1.2,1.2-2,1.3
			C244.8,517.5,243.2,517.6,240.9,517.6z M250.5,517.6v-26.2h12v26h-3.9V515h-4v2.6H250.5z M258.5,495.3h-4V511h4V495.3z"/>
		<path class="st1" d="M265.4,509.7l-0.7-4.2c1.8-0.2,3.7-0.4,5.4-0.6v-3.8h-5.4v-3.8h5.4v-2.9l-4.2,0.3c-0.1-0.9-0.3-2.2-0.6-3.8
			c4.4-0.3,8.7-0.7,12.8-1.2l0.9,3.8c-1.4,0.2-3,0.4-4.6,0.6v3.4h5.7l-0.4-8.4h4.2c0.1,2.9,0.2,5.7,0.3,8.4h9.8v3.8h-9.6
			c0.1,2.3,0.4,4.2,0.7,5.7c1.8-1.6,3.3-3.4,4.7-5.4l3.2,2.6c-2,2.5-4.1,4.8-6.7,6.8c0.7,1.9,1.7,2.8,2.6,2.8c0.1,0,0.3,0,0.5-0.1
			c0.2-0.1,0.4-0.6,0.7-1.6c0.3-1,0.5-2.3,0.7-3.7c1.4,0.9,2.6,1.6,3.7,2.1c-0.6,3-1.2,5-1.9,6.1c-0.8,1-1.7,1.6-3,1.6
			c-2.8,0-5.1-1.5-6.6-4.5c-1.7,1.1-3.5,2.3-5.3,3.2c-0.7-1.1-1.4-2.3-2.4-3.5c2.3-0.9,4.5-2.2,6.5-3.6c-0.6-2.3-0.9-5.1-1.2-8.5h-6
			v3.3c1.7-0.2,3.4-0.5,5.1-0.7c-0.1,0.8-0.1,1.7-0.1,2.3c0,0.6,0,1.1,0.1,1.6l-5,0.7v5.9c0,1.1-0.3,1.9-0.8,2.5s-1.4,0.9-2.6,1
			c-1.3,0.1-2.8,0.2-4.5,0.2c-0.4-1.8-0.8-3-1.1-3.9c0.9,0.1,2,0.1,2.9,0.1h0.6c0.4,0,0.7-0.1,0.8-0.4c0.2-0.3,0.3-0.7,0.3-1.2v-3.8
			L265.4,509.7z M287.4,489.8c2.3,1.9,4,3.4,5.2,4.5c-1.1,1-2.1,2-2.8,2.6c-1.4-1.6-3.1-3.2-5-4.7L287.4,489.8z"/>
		<path class="st1" d="M314.9,510.8c0,0.8,0.1,1.6,0.2,2.3c0.8-0.9,1.5-1.9,2.2-3c-0.8-2.3-1.5-4.9-1.8-7.8
			c-0.3,0.5-0.6,0.8-0.8,1.2c-0.4-1-0.8-2.2-1.5-3.3c0.1-0.2,0.2-0.4,0.3-0.6h-10c-0.7,1.1-1.4,2.3-2.2,3.3v15.3h-3.5v-10.7
			c-0.6,0.7-1.2,1.3-1.8,2c-0.3-1.1-0.8-2.4-1.4-4.1c2.2-2.5,4.3-5.2,6-8.3l2.2,1.6V492c-1.9,2.5-3.8,4.8-5.9,6.8
			c-0.7-1.1-1.5-2.3-2.2-3.3c2.2-2,4-4.1,5.8-6.7l3.1,2.2c-0.2,0.2-0.3,0.4-0.5,0.7h2.6v5.2h1.2v-7.7h2.9v7.7h1.2v-5.2h2.9v7
			c1.2-2.6,2.3-5.9,3.1-9.9l3.5,0.7c-0.4,1.5-0.8,2.9-1.2,4.3h5.3v3.6h-1c-0.3,4.9-1.1,9.1-2.5,12.6c0.9,1.6,2.2,2.9,3.6,3.9
			c-0.7,1.7-1.3,3.1-1.6,4.2c-1.5-1.2-2.8-2.7-3.8-4.3c-1,1.7-2.3,3.2-3.8,4.5c-0.5-1.1-0.9-2.2-1.5-3.1c-1.3,0.8-2.3,1.7-3.2,2.3
			l-1.7-2.3c0.5-0.6,0.7-1.1,0.7-1.8v-4.3H307c0,4-1,7-3.2,8.9c-0.6-0.8-1.3-1.7-2.3-2.5c0.6-0.6,1.1-1.2,1.4-2
			c0.4-0.7,0.6-1.5,0.7-2.3c0.1-0.8,0.2-2.4,0.2-5h8.9v6.1C313.2,512,314,511.4,314.9,510.8z M303.2,501.4h10.5v2.9h-10.5V501.4z
			 M319.1,505.6c0.7-2.4,1.1-5.2,1.2-8.2H318l-0.1,0.2C318,500.5,318.4,503.3,319.1,505.6z"/>
		<path class="st1" d="M330.6,489l3.9,1c-0.8,2.3-1.5,4.6-2.3,6.7v21.5h-3.8V505c-0.7,1.3-1.4,2.4-2.2,3.6c-0.2-1.6-0.6-3.5-0.9-5.5
			C327.2,499.6,328.9,495,330.6,489z M354.8,495.8h-20.7v-3.4h8c-0.4-0.8-0.8-1.8-1.2-2.7l4.4-0.8c0.5,0.9,1,2.1,1.6,3.6h8
			L354.8,495.8L354.8,495.8z M335.3,518.2v-11.3h17.8v11.3h-4v-1.6h-9.8v1.5L335.3,518.2L335.3,518.2z M353.1,500.5h-17.8v-3.2h17.8
			V500.5z M353.1,505.2h-17.8V502h17.8V505.2z M349,510.3h-9.8v2.8h9.8V510.3z"/>
	</g>
</g>
</svg>
