<svg xmlns="http://www.w3.org/2000/svg" viewBox="0 0 32.4 26.8"><defs><style>.cls-1{fill:#fff;}</style></defs><title>资源 1</title><g id="图层_2" data-name="图层 2"><g id="Layer_1" data-name="Layer 1"><path class="cls-1" d="M32.4,17.2c0-4.7-4.3-8.5-9.6-8.5s-9.6,3.8-9.6,8.5,4.3,8.5,9.6,8.5a9.74,9.74,0,0,0,3.4-.6l3,1.7L28.4,24A8.35,8.35,0,0,0,32.4,17.2ZM19.7,15.6a1.16,1.16,0,0,1-1.2-1.2,1.22,1.22,0,0,1,1.2-1.2,1.2,1.2,0,0,1,0,2.4Zm6.1,0a1.16,1.16,0,0,1-1.2-1.2,1.29,1.29,0,0,1,1.2-1.2,1.2,1.2,0,0,1,0,2.4Z"/><path class="cls-1" d="M22.6,7.8h.2C21.7,3.4,17.1,0,11.5,0,5.2,0,0,4.4,0,9.8a9.51,9.51,0,0,0,5,8L3.1,21.6,7.9,19a14.38,14.38,0,0,0,3.7.5h1a8.52,8.52,0,0,1-.3-2.3C12.3,12.1,17,7.9,22.6,7.8Zm-6.8-3a1.54,1.54,0,0,1,1.5,1.5,1.5,1.5,0,1,1-3,0A1.47,1.47,0,0,1,15.8,4.8Zm-8,3A1.54,1.54,0,0,1,6.3,6.3a1.5,1.5,0,0,1,3,0A1.54,1.54,0,0,1,7.8,7.8Z"/></g></g></svg>