<svg id="前景" xmlns="http://www.w3.org/2000/svg" viewBox="0 0 200 200"><defs><style>.cls-1{fill:#f5e5b4;fill-rule:evenodd;}</style></defs><title>Logo</title><path class="cls-1" d="M223.05,232.18c8.85,5.43,12.94,17.11,12.94,26.08V323.8a6.32,6.32,0,0,0,6.31,6.31H254a7.1,7.1,0,0,1,7.1,7.1v38a7.1,7.1,0,0,1-7.1,7.1H238a7,7,0,0,0-6.86,5.45c-1,4.53-2.83,11.53-5.45,19.64-5.51,17.07-31.39,14.87-31.39,14.87,8.85-17.17,12.67-38.22,14.25-50.61a12,12,0,0,1,12-10.52h16.61a3.26,3.26,0,0,0,3.26-3.26v-3.6a3.26,3.26,0,0,0-3.26-3.26H230.6c-9.39,0-18.6-6.39-18.6-22.49V262.13c0-27.71-29.64-39.73-29.64-39.73S206.78,222.18,223.05,232.18Zm118.62,0c-8.84,5.43-12.94,17.11-12.94,26.08V323.8a6.31,6.31,0,0,1-6.31,6.31H310.75a7.1,7.1,0,0,0-7.1,7.1v38a7.1,7.1,0,0,0,7.1,7.1h15.94a7,7,0,0,1,6.86,5.45c1.05,4.53,2.84,11.53,5.45,19.64,5.51,17.07,31.39,14.87,31.39,14.87-8.84-17.17-12.66-38.22-14.24-50.61a12,12,0,0,0-12-10.52H327.58a3.26,3.26,0,0,1-3.26-3.26v-3.6a3.26,3.26,0,0,1,3.26-3.26h6.54c9.39,0,18.6-6.39,18.6-22.49V262.13c0-27.71,29.64-39.73,29.64-39.73S358,222.18,341.67,232.18Zm-71.46,98v90.08h24.3V330.19Zm-19.88-81.1a9.24,9.24,0,0,0,9.24,9.24h33.95A4.42,4.42,0,0,1,297.7,263v2a4.42,4.42,0,0,1-4.18,4.62H259.57a9.24,9.24,0,0,0-9.24,9.24h0a9.24,9.24,0,0,0,9.24,9.24h33.95a4.42,4.42,0,0,1,4.18,4.62v2a4.42,4.42,0,0,1-4.18,4.62H259.57a9.24,9.24,0,0,0-9.24,9.24h0a9.23,9.23,0,0,0,9.24,9.24h33.95c11.53,0,20.88-10.34,20.88-23.1v-2a24.65,24.65,0,0,0-4.18-13.86A24.65,24.65,0,0,0,314.4,265v-2c0-12.76-9.35-23.1-20.88-23.1H259.57a9.23,9.23,0,0,0-9.24,9.24Z" transform="translate(-182.36 -222.4)"/></svg>